<svg xmlns="http://www.w3.org/2000/svg" width="196" height="196" viewBox="0 0 196 196"><path d="M134.6 44.6a24.7 24.7 0 0 0-4.9-2.4h-.2a69 69 0 0 0-31.6-6.8 68.9 68.9 0 0 0-31.5 6.8l-.4.2a18.6 18.6 0 0 0-4.7 2.3C43.2 53.7-15 86 16.8 111.3c6.7 5.3 12.6 6.5 17.7 4.8 3 24.2 20.2 44.7 63.4 44.7h.1c43.1 0 60.3-20.5 63.4-44.6 5.2 1.7 11.1.6 17.9-4.8 31.9-25.4-26.9-57.9-44.7-66.8zm-36.7 61.5c15.6 0 0 10.4 0 10.4s-15.5-10.4 0-10.4zm-27.6-6.5A11.8 11.8 0 1 1 82 87.9a11.7 11.7 0 0 1-11.7 11.7zm55.3 0a11.8 11.8 0 0 1 0-23.5 11.8 11.8 0 1 1 0 23.5zM91.1 69.7c0 4.2-2 7.6-4.5 7.6s-4.5-3.4-4.5-7.6 2-7.7 4.5-7.7 4.5 3.5 4.5 7.7zm22.9 0c0 4.2-2 7.6-4.5 7.6s-4.5-3.4-4.5-7.6 2-7.7 4.5-7.7 4.5 3.5 4.5 7.7z"/></svg>